<svg xmlns="http://www.w3.org/2000/svg" viewBox="0 0 620 175"><path d="M20 8H600Q612 8 612 20V65Q584 87 612 110V155Q612 167 600 167H20Q8 167 8 155V110Q36 87 8 65V20Q8 8 20 8Z" fill="#fffdf7" stroke="#20254e" stroke-width="7"/><path d="M22 158H598" stroke="#ef9223" stroke-width="7"/><path d="M167 25V144" stroke="#20254e" stroke-width="3" stroke-dasharray="5 8" stroke-linecap="round"/><path d="M81 34V105M43 115Q89 130 138 109L122 137H67Z" fill="#20254e" stroke="#20254e" stroke-width="4"/><path d="M75 45L42 103H75ZM89 51V105H127Z" fill="#ef9223"/><path d="M85 35Q103 23 118 35Q103 46 85 39" fill="#ef9223"/><circle cx="97" cy="125" r="4" fill="white"/><circle cx="115" cy="122" r="4" fill="white"/><text x="187" y="114" fill="#20254e" font-family="'Noto Sans JP','Yu Gothic',sans-serif" font-weight="900" font-size="60">ソラフネ<tspan font-size="39">留学</tspan></text></svg>
